<mxfile host="drawio-plugin" modified="2022-11-16T23:45:25.168Z" agent="5.0 (Windows NT 6.2; Win64; x64) AppleWebKit/537.36 (KHTML, like Gecko) Chrome/98.0.4758.102 Safari/537.36" version="15.5.4" etag="QqCTWYM5nKGnv8WAGQpR" type="embed"><diagram id="b9HJDHtrkvyeXEelahXw" name="Page-1"><mxGraphModel dx="973" dy="1804" grid="1" gridSize="10" guides="1" tooltips="1" connect="1" arrows="1" fold="1" page="1" pageScale="1" pageWidth="850" pageHeight="1100" math="0" shadow="0"><root><mxCell id="0"/><mxCell id="1" parent="0"/><mxCell id="2" value="AIPlayer extends Player" style="swimlane;fontStyle=1;align=center;verticalAlign=top;childLayout=stackLayout;horizontal=1;startSize=30;horizontalStack=0;resizeParent=1;resizeParentMax=0;resizeLast=0;collapsible=1;marginBottom=0;" vertex="1" parent="1"><mxGeometry x="340" y="-960" width="300" height="120" as="geometry"/></mxCell><mxCell id="3" value="-difficulty: int (optional)" style="text;strokeColor=none;fillColor=none;align=left;verticalAlign=top;spacingLeft=4;spacingRight=4;overflow=hidden;rotatable=0;points=[[0,0.5],[1,0.5]];portConstraint=eastwest;" vertex="1" parent="2"><mxGeometry y="30" width="300" height="40" as="geometry"/></mxCell><mxCell id="4" value="" style="line;strokeWidth=1;fillColor=none;align=left;verticalAlign=middle;spacingTop=-1;spacingLeft=3;spacingRight=3;rotatable=0;labelPosition=right;points=[];portConstraint=eastwest;" vertex="1" parent="2"><mxGeometry y="70" width="300" height="8" as="geometry"/></mxCell><mxCell id="5" value="+AIPlayer(String, DrawPile, Integer)&#10;+playWord(ArrayList&lt;BoardTile&gt;) : void" style="text;strokeColor=none;fillColor=none;align=left;verticalAlign=top;spacingLeft=4;spacingRight=4;overflow=hidden;rotatable=0;points=[[0,0.5],[1,0.5]];portConstraint=eastwest;" vertex="1" parent="2"><mxGeometry y="78" width="300" height="42" as="geometry"/></mxCell><mxCell id="6" value="DictionaryHandler" style="swimlane;fontStyle=1;align=center;verticalAlign=top;childLayout=stackLayout;horizontal=1;startSize=26;horizontalStack=0;resizeParent=1;resizeParentMax=0;resizeLast=0;collapsible=1;marginBottom=0;" vertex="1" parent="1"><mxGeometry x="40" y="-960" width="260" height="140" as="geometry"/></mxCell><mxCell id="7" value="-allWords: ArrayList&lt;String&gt;" style="text;strokeColor=none;fillColor=none;align=left;verticalAlign=top;spacingLeft=4;spacingRight=4;overflow=hidden;rotatable=0;points=[[0,0.5],[1,0.5]];portConstraint=eastwest;" vertex="1" parent="6"><mxGeometry y="26" width="260" height="26" as="geometry"/></mxCell><mxCell id="8" value="" style="line;strokeWidth=1;fillColor=none;align=left;verticalAlign=middle;spacingTop=-1;spacingLeft=3;spacingRight=3;rotatable=0;labelPosition=right;points=[];portConstraint=eastwest;" vertex="1" parent="6"><mxGeometry y="52" width="260" height="8" as="geometry"/></mxCell><mxCell id="9" value="+DictionaryHandler()&#10;+isValidWord(String): boolean&#10;+getValidWords(Placement): ArrayList&lt;String&gt;" style="text;strokeColor=none;fillColor=none;align=left;verticalAlign=top;spacingLeft=4;spacingRight=4;overflow=hidden;rotatable=0;points=[[0,0.5],[1,0.5]];portConstraint=eastwest;" vertex="1" parent="6"><mxGeometry y="60" width="260" height="80" as="geometry"/></mxCell><mxCell id="10" value="Board" style="swimlane;fontStyle=1;align=center;verticalAlign=top;childLayout=stackLayout;horizontal=1;startSize=26;horizontalStack=0;resizeParent=1;resizeParentMax=0;resizeLast=0;collapsible=1;marginBottom=0;" vertex="1" parent="1"><mxGeometry x="540" y="-710" width="370" height="320" as="geometry"/></mxCell><mxCell id="11" value="- boardTileTable: BoardTile2DTable&#10;+Direction: Enum&#10;- currentWords: ArrayList&lt;PlacedWord&gt;&#10;- dictionary: DictionaryHandler&#10;- validator: BoardValidator" style="text;strokeColor=none;fillColor=none;align=left;verticalAlign=top;spacingLeft=4;spacingRight=4;overflow=hidden;rotatable=0;points=[[0,0.5],[1,0.5]];portConstraint=eastwest;" vertex="1" parent="10"><mxGeometry y="26" width="370" height="79" as="geometry"/></mxCell><mxCell id="12" value="" style="line;strokeWidth=1;fillColor=none;align=left;verticalAlign=middle;spacingTop=-1;spacingLeft=3;spacingRight=3;rotatable=0;labelPosition=right;points=[];portConstraint=eastwest;" vertex="1" parent="10"><mxGeometry y="105" width="370" height="8" as="geometry"/></mxCell><mxCell id="13" value="+ Board(Boolean)&#10;+ placeWord(BoardPlaceEvent): int&#10;- setWordTiles(BoardPlaceEvent) : void&#10;-placeTile(Point, Letter) : void&#10;+ isTaken(Point) : boolean&#10;+ isBoardEmpty() : boolean&#10;+ isStartTile(Point) : boolean&#10;+ allBoardWords(BoardPlaceEvent) : ArrayList&lt;PlacedWord&gt;&#10;+ getTurnScore(BoardPlaceEvent) : int&#10;+ getNewWords(BoardPlaceEvent) : ArrayList&lt;PlacedWord&gt; &#10;+ getBoardTile(Point) : BoardTile&#10;+ getAvailablePlacements() : ArrayList&lt;Placement&gt;&#10;+  toString(): String" style="text;strokeColor=none;fillColor=none;align=left;verticalAlign=top;spacingLeft=4;spacingRight=4;overflow=hidden;rotatable=0;points=[[0,0.5],[1,0.5]];portConstraint=eastwest;fontStyle=0" vertex="1" parent="10"><mxGeometry y="113" width="370" height="207" as="geometry"/></mxCell><mxCell id="14" value="Player" style="swimlane;fontStyle=1;align=center;verticalAlign=top;childLayout=stackLayout;horizontal=1;startSize=26;horizontalStack=0;resizeParent=1;resizeParentMax=0;resizeLast=0;collapsible=1;marginBottom=0;" vertex="1" parent="1"><mxGeometry x="710" y="-960" width="225" height="130" as="geometry"/></mxCell><mxCell id="15" value="- hand: Hand&#10;- name: String&#10;- score: int&#10;- model: ScrabbleModel" style="text;strokeColor=none;fillColor=none;align=left;verticalAlign=top;spacingLeft=4;spacingRight=4;overflow=hidden;rotatable=0;points=[[0,0.5],[1,0.5]];portConstraint=eastwest;" vertex="1" parent="14"><mxGeometry y="26" width="225" height="64" as="geometry"/></mxCell><mxCell id="16" value="" style="line;strokeWidth=1;fillColor=none;align=left;verticalAlign=middle;spacingTop=-1;spacingLeft=3;spacingRight=3;rotatable=0;labelPosition=right;points=[];portConstraint=eastwest;" vertex="1" parent="14"><mxGeometry y="90" width="225" height="8" as="geometry"/></mxCell><mxCell id="17" value="...." style="text;strokeColor=none;fillColor=none;align=left;verticalAlign=top;spacingLeft=4;spacingRight=4;overflow=hidden;rotatable=0;points=[[0,0.5],[1,0.5]];portConstraint=eastwest;" vertex="1" parent="14"><mxGeometry y="98" width="225" height="32" as="geometry"/></mxCell><mxCell id="18" value="Extends" style="endArrow=block;endSize=16;endFill=0;html=1;rounded=0;exitX=1;exitY=0.5;exitDx=0;exitDy=0;entryX=0.009;entryY=0.367;entryDx=0;entryDy=0;entryPerimeter=0;" edge="1" parent="1" source="3" target="15"><mxGeometry width="160" relative="1" as="geometry"><mxPoint x="490" y="-760" as="sourcePoint"/><mxPoint x="450" y="-950" as="targetPoint"/></mxGeometry></mxCell><mxCell id="21" value="Use" style="endArrow=open;endSize=12;dashed=1;html=1;rounded=0;entryX=0.5;entryY=0;entryDx=0;entryDy=0;" edge="1" parent="1" target="10"><mxGeometry width="160" relative="1" as="geometry"><mxPoint x="485" y="-840" as="sourcePoint"/><mxPoint x="517.5" y="-780" as="targetPoint"/></mxGeometry></mxCell><mxCell id="31" value="Use" style="endArrow=open;endSize=12;dashed=1;html=1;rounded=0;entryX=1;entryY=0.5;entryDx=0;entryDy=0;exitX=0.007;exitY=0.25;exitDx=0;exitDy=0;exitPerimeter=0;" edge="1" parent="1" source="3" target="7"><mxGeometry width="160" relative="1" as="geometry"><mxPoint x="404.9000000000001" y="-816.514" as="sourcePoint"/><mxPoint x="405" y="-597.5" as="targetPoint"/></mxGeometry></mxCell></root></mxGraphModel></diagram></mxfile>